<svg xmlns="http://www.w3.org/2000/svg" width="356" height="76" viewBox="0 0 356 76" fill="none"><path fill-rule="evenodd" clip-rule="evenodd" d="M54.9756 60.9117L54.9548 60.9018C52.0745 59.5247 49.63 57.6598 47.6723 55.2962L47.6493 55.2681C45.7749 52.9485 44.3459 50.3894 43.3749 47.6016C43.3688 47.5842 43.3629 47.5668 43.3572 47.5493C42.4582 44.8071 42 42.0356 42 39.2454V37.8918C42 35.0141 42.4541 32.1922 43.3572 29.4375C43.3629 29.42 43.3688 29.4026 43.3749 29.3852C44.3505 26.5843 45.7924 24.0535 47.6963 21.8123L47.7007 21.8072C49.7002 19.4641 52.1574 17.609 55.0303 16.2354C58.0264 14.8029 61.4294 14.1372 65.1573 14.1372C68.903 14.1372 72.3648 14.8344 75.4827 16.2973C78.6357 17.7531 81.2169 19.8553 83.1476 22.608C85.1717 25.3701 86.2631 28.6071 86.4964 32.2085C86.55 33.0361 86.2586 33.8489 85.6915 34.454C85.1243 35.0591 84.332 35.4024 83.5027 35.4024H76.5571C75.0616 35.4024 73.7945 34.3009 73.5863 32.8199C73.3385 31.0566 72.5575 29.6404 71.151 28.4549C71.1397 28.4454 71.1285 28.4358 71.1173 28.4261C69.838 27.3152 67.9625 26.6042 65.1573 26.6042C62.7458 26.6042 60.9813 27.1479 59.6747 28.0384C58.2662 28.9983 57.1895 30.3106 56.4441 32.0692C55.6687 33.8985 55.2476 36.0473 55.2476 38.5686C55.2476 40.9692 55.6618 43.1025 56.4496 45.0058C57.1921 46.7514 58.267 48.0919 59.6812 49.1027C61.0423 49.9947 62.8598 50.533 65.3083 50.533C67.2223 50.533 68.7203 50.1944 69.8923 49.6283C71.1591 49.0166 72.0993 48.236 72.7909 47.3061C73.4786 46.3813 73.8899 45.3502 74.0308 44.1573C74.2092 42.6471 75.4893 41.5092 77.0101 41.5092H83.9557C84.7762 41.5092 85.5609 41.8453 86.127 42.4392C86.6932 43.0331 86.9914 43.8329 86.9522 44.6525C86.7762 48.335 85.6773 51.6483 83.5843 54.4763C81.6045 57.2187 78.9827 59.3341 75.7967 60.8342L75.775 60.8443C72.6105 62.3036 69.1023 63 65.3083 63C61.4924 63 58.0202 62.3388 54.9756 60.9117ZM57.9852 51.5778C56.0727 50.2243 54.6383 48.4195 53.682 46.1636C52.7257 43.8575 52.2476 41.3259 52.2476 38.5686C52.2476 35.7111 52.7257 33.1544 53.682 30.8984C54.6383 28.6425 56.0727 26.8628 57.9852 25.5594C59.8978 24.2559 62.2885 23.6042 65.1573 23.6042C68.4791 23.6042 71.1214 24.4565 73.0843 26.1609C75.0472 27.8153 76.2048 29.8958 76.5571 32.4024H83.5027C83.4348 31.3539 83.2838 30.3539 83.0498 29.4024C82.5901 27.5332 81.81 25.8511 80.7094 24.3562C79.0988 22.0501 76.9346 20.2704 74.2168 19.0171C71.5492 17.7639 68.5294 17.1372 65.1573 17.1372C61.7852 17.1372 58.8408 17.7388 56.3243 18.942C53.8078 20.1451 51.6939 21.7493 49.9827 23.7546C48.3218 25.7098 47.0635 27.9156 46.2079 30.372C45.4026 32.8285 45 35.3351 45 37.8918V39.2454C45 41.7018 45.4026 44.1583 46.2079 46.6148C47.0635 49.0712 48.3218 51.3272 49.9827 53.3826C51.6436 55.3879 53.7323 56.9921 56.2488 58.1953C58.8157 59.3984 61.8355 60 65.3083 60C68.7307 60 71.8009 59.3734 74.5187 58.1201C77.2869 56.8166 79.5014 55.0119 81.1623 52.7058C82.3064 51.1641 83.1017 49.4319 83.5484 47.5092C83.7699 46.556 83.9056 45.556 83.9557 44.5092H77.0101C76.8088 46.2137 76.2048 47.7427 75.1982 49.0963C74.1916 50.4499 72.8578 51.5277 71.1969 52.3298C69.536 53.1319 67.5731 53.533 65.3083 53.533C62.3891 53.533 59.9481 52.8813 57.9852 51.5778ZM94.5587 61.6464C92.9018 61.6464 91.5587 60.3033 91.5587 58.6464V18.4908C91.5587 16.8339 92.9018 15.4908 94.5587 15.4908H100.296C101.953 15.4908 103.296 16.8339 103.296 18.4908V18.6359C106.514 16.137 110.712 15.0396 115.546 15.0396H116.905C118.562 15.0396 119.905 16.3827 119.905 18.0396V24.5066C119.905 26.1634 118.562 27.5066 116.905 27.5066H114.338C110.844 27.5066 108.61 28.431 107.17 29.8656L107.145 29.8904C105.733 31.2638 104.806 33.4374 104.806 36.9142V58.6464C104.806 60.3033 103.463 61.6464 101.806 61.6464H94.5587ZM103.296 22.8018C102.052 24.3412 101.159 26.3133 100.618 28.7181C100.492 29.281 100.384 29.8676 100.296 30.4779V18.4908H94.5587V58.6464H101.806V36.9142C101.806 36.2624 101.835 35.6358 101.892 35.0343C102.073 33.1284 102.541 31.4751 103.296 30.0744C103.349 29.9774 103.402 29.8816 103.457 29.787C103.9 29.0263 104.432 28.344 105.053 27.7401C107.217 25.5844 110.312 24.5066 114.338 24.5066H116.905V18.0396H115.546C114.984 18.0396 114.437 18.0558 113.905 18.0882C109.532 18.3548 106.178 19.7172 103.845 22.1755C103.655 22.3756 103.472 22.5844 103.296 22.8018ZM125.257 55.3652L125.234 55.3364C123.396 53.0483 122.015 50.4973 121.098 47.6997C121.095 47.6894 121.091 47.679 121.088 47.6687C121.086 47.6613 121.083 47.6539 121.081 47.6465C120.239 44.906 119.816 42.1024 119.816 39.2454V37.8918C119.816 34.9906 120.237 32.1617 121.081 29.4155C121.087 29.3977 121.092 29.38 121.098 29.3623C122.015 26.5644 123.398 24.032 125.245 21.7862C127.156 19.4126 129.56 17.5622 132.406 16.2297C135.399 14.8011 138.798 14.1372 142.521 14.1372C147.315 14.1372 151.536 15.1793 154.971 17.4919C158.275 19.6343 160.77 22.458 162.376 25.9424C163.976 29.3081 164.772 32.9021 164.772 36.6887V39.9222C164.772 41.579 163.429 42.9222 161.772 42.9222H133.215C133.393 43.7168 133.621 44.4685 133.898 45.1794C134.635 46.8996 135.722 48.2315 137.181 49.2432C138.528 50.131 140.393 50.6834 142.974 50.6834C145.714 50.6834 147.614 50.0782 148.929 49.1376L148.958 49.117C150.539 48.0152 151.167 46.9717 151.366 46.0536C151.666 44.6741 152.886 43.69 154.298 43.69H161.093C161.992 43.69 162.844 44.0933 163.413 44.7889C163.983 45.4845 164.211 46.399 164.034 47.2806C163.391 50.4842 162.084 53.3298 160.081 55.7474C158.096 58.1443 155.605 59.9576 152.662 61.1884C149.725 62.4175 146.478 63 142.974 63C139.115 63 135.615 62.3413 132.565 60.9117C129.644 59.5422 127.183 57.703 125.257 55.3652ZM135.5 51.7282C133.537 50.3747 132.077 48.5699 131.121 46.314C130.7 45.2429 130.377 44.1123 130.152 42.9222C129.97 41.961 129.851 40.961 129.797 39.9222H161.772V36.6887C161.772 33.3298 161.067 30.1715 159.658 27.2137C158.299 24.2559 156.185 21.8496 153.317 19.9947C150.498 18.0897 146.899 17.1372 142.521 17.1372C139.149 17.1372 136.204 17.7388 133.688 18.942C131.222 20.095 129.183 21.6741 127.573 23.6794C125.962 25.6346 124.754 27.8404 123.949 30.2968C123.637 31.3118 123.389 32.3396 123.206 33.3803C123.141 33.7545 123.083 34.1304 123.034 34.5079C123.017 34.6346 123.002 34.7615 122.987 34.8885C122.873 35.8783 122.816 36.8794 122.816 37.8918V39.2454C122.816 41.8021 123.194 44.3087 123.949 46.7652C124.754 49.2216 125.962 51.4525 127.573 53.4578C129.183 55.4129 131.272 56.9921 133.839 58.1953C136.406 59.3984 139.451 60 142.974 60C146.144 60 148.988 59.4736 151.505 58.4208C154.021 57.3681 156.11 55.8391 157.771 53.8338C158.796 52.5958 159.611 51.2145 160.214 49.69C160.588 48.745 160.881 47.745 161.093 46.69H154.298C153.895 48.5449 152.687 50.1741 150.674 51.5778C148.711 52.9815 146.144 53.6834 142.974 53.6834C139.954 53.6834 137.462 53.0317 135.5 51.7282ZM130.837 31.5079C130.512 32.4506 130.26 33.4506 130.082 34.5079H154.65C154.6 34.1178 154.54 33.737 154.47 33.3654C154.347 32.7182 154.193 32.099 154.007 31.5079C153.849 31.009 153.67 30.5301 153.468 30.0712C152.562 27.9657 151.203 26.3364 149.391 25.1834C147.579 24.0303 145.289 23.4538 142.521 23.4538C139.652 23.4538 137.261 24.1055 135.349 25.409C133.486 26.7124 132.077 28.4921 131.121 30.748C131.021 30.997 130.926 31.2503 130.837 31.5079ZM134.067 31.5079H150.819C150.787 31.4314 150.755 31.3558 150.722 31.2812L150.712 31.2569C150.027 29.6654 149.049 28.5219 147.78 27.7144C146.571 26.9446 144.881 26.4538 142.521 26.4538C140.119 26.4538 138.358 26.9933 137.053 27.8776C135.803 28.7569 134.804 29.9409 134.067 31.5079ZM194.202 56.0017C194.83 55.3592 195.377 54.6365 195.844 53.8338C196.335 53.0035 196.745 52.0919 197.073 51.099C197.118 50.9641 197.161 50.8276 197.202 50.6897V58.6464H202.94V33.2296C202.94 29.4697 202.311 26.4868 201.053 24.281C199.794 22.0752 197.857 20.496 195.24 19.5435C192.622 18.5409 189.25 18.0396 185.123 18.0396C183.915 18.0396 182.657 18.0646 181.348 18.1148C180.04 18.1148 178.756 18.1649 177.498 18.2652C176.29 18.3153 175.133 18.3905 174.025 18.4908V24.8074C174.9 24.7282 175.9 24.6647 177.025 24.6167C177.325 24.604 177.634 24.5923 177.951 24.5818C179.461 24.5317 181.046 24.4815 182.707 24.4314C184.368 24.3813 185.979 24.3562 187.539 24.3562C190.307 24.3562 192.396 25.058 193.805 26.4617C194.883 27.4987 195.563 28.9051 195.845 30.6807C195.945 31.3087 195.994 31.9828 195.994 32.7032V33.6807H185.803C182.33 33.6807 179.36 34.1821 176.894 35.1847C174.428 36.1372 172.541 37.566 171.232 39.471C169.974 41.376 169.345 43.7573 169.345 46.6148C169.345 49.372 169.923 51.7282 171.081 53.6834C172.289 55.6385 173.975 57.1425 176.139 58.1953C178.354 59.1979 180.971 59.6992 183.991 59.6992C186.809 59.6992 189.2 59.1979 191.163 58.1953C192.328 57.6151 193.341 56.8839 194.202 56.0017ZM194.333 49.8153C194.445 49.6495 194.551 49.4772 194.652 49.2984C194.882 48.8914 195.082 48.4509 195.253 47.9769C195.408 47.55 195.538 47.096 195.646 46.6148C195.66 46.5487 195.675 46.4821 195.688 46.415C195.855 45.604 195.957 44.7181 195.994 43.7573V39.095H185.501C182.581 39.095 180.342 39.7968 178.782 41.2005C177.221 42.6042 176.441 44.409 176.441 46.6148C176.441 48.8206 177.221 50.6003 178.782 51.9538C180.342 53.3074 182.581 53.9842 185.501 53.9842C187.212 53.9842 188.848 53.6834 190.408 53.0818C191.939 52.442 193.204 51.4158 194.202 50.0031C194.221 49.9767 194.24 49.9502 194.258 49.9235C194.283 49.8877 194.308 49.8517 194.333 49.8153ZM192.994 43.6973C192.901 45.9256 192.411 47.3338 191.804 48.1985L191.792 48.2157C191.104 49.2085 190.278 49.8768 189.288 50.2981C188.093 50.7536 186.837 50.9842 185.501 50.9842C183.008 50.9842 181.574 50.4047 180.747 49.6877C179.893 48.9464 179.441 48.018 179.441 46.6148C179.441 45.2105 179.896 44.2335 180.788 43.4308C181.614 42.6874 183.032 42.095 185.501 42.095H192.994V43.6973ZM175.789 32.3957C172.853 33.5341 170.453 35.3064 168.759 37.7724C168.749 37.7873 168.739 37.8024 168.729 37.8176C167.074 40.3236 166.345 43.3173 166.345 46.6148C166.345 49.795 167.015 52.7042 168.5 55.2118C168.509 55.228 168.519 55.2441 168.529 55.2602C170.05 57.7223 172.177 59.6039 174.827 60.893C174.852 60.9051 174.877 60.9168 174.902 60.9282C177.587 62.1441 180.645 62.6992 183.991 62.6992C187.149 62.6992 190.03 62.1391 192.514 60.874C193.183 60.5397 193.816 60.1633 194.41 59.7454C194.849 60.8586 195.933 61.6464 197.202 61.6464H202.94C204.597 61.6464 205.94 60.3033 205.94 58.6464V33.2296C205.94 29.1812 205.27 25.6197 203.659 22.7945C202.017 19.9173 199.494 17.9047 196.289 16.7331C193.212 15.559 189.449 15.0396 185.123 15.0396C183.892 15.0396 182.614 15.0648 181.291 15.1148C179.945 15.1162 178.62 15.1678 177.317 15.2701C176.085 15.3221 174.897 15.3995 173.755 15.503C172.209 15.6429 171.025 16.9387 171.025 18.4908V24.8074C171.025 25.6501 171.38 26.4539 172.002 27.0223C172.624 27.5907 173.457 27.8712 174.296 27.7952C175.33 27.7015 176.579 27.629 178.051 27.5801C179.557 27.5301 181.14 27.4801 182.798 27.43C184.43 27.3808 186.011 27.3562 187.539 27.3562C189.83 27.3562 191.031 27.9329 191.688 28.5872C191.7 28.5996 191.713 28.6119 191.726 28.6241C192.165 29.0464 192.564 29.6833 192.793 30.6807H185.803C182.065 30.6807 178.699 31.2171 175.789 32.3957ZM223.771 60.6191L223.749 60.6106C220.945 59.5061 218.742 57.5956 217.204 54.9778C217.198 54.9683 217.193 54.9587 217.187 54.9491C217.179 54.9339 217.17 54.9185 217.161 54.9031C215.671 52.1922 215.054 48.7998 215.054 44.9604V26.905H211.108C209.451 26.905 208.108 25.5619 208.108 23.905V18.4908C208.108 16.8339 209.451 15.4908 211.108 15.4908H215.054V6.3087C215.054 4.65185 216.397 3.3087 218.054 3.3087H225C226.656 3.3087 228 4.65185 228 6.3087V15.4908H238.891C240.548 15.4908 241.891 16.8339 241.891 18.4908V23.905C241.891 25.5619 240.548 26.905 238.891 26.905H228V45.8628C228 47.4279 228.396 48.2729 228.854 48.7745C229.36 49.2331 230.215 49.6306 231.794 49.6306H238.891C240.548 49.6306 241.891 50.9738 241.891 52.6306V59.0976C241.891 60.7545 240.548 62.0976 238.891 62.0976H232.7C229.408 62.0976 226.409 61.6343 223.771 60.6191ZM226.736 50.9011C225.578 49.6979 225 48.0185 225 45.8628V23.905H238.891V18.4908H225V6.3087H218.054V18.4908H211.108V23.905H218.054V44.9604C218.054 48.5198 218.633 51.3522 219.79 53.4578C220.998 55.5132 222.684 56.967 224.849 57.8193C227.063 58.6715 229.68 59.0976 232.7 59.0976H238.891V52.6306H231.794C229.63 52.6306 227.944 52.0541 226.736 50.9011ZM251.859 61.6464C250.203 61.6464 248.859 60.3033 248.859 58.6464V27.2058H245.669C244.012 27.2058 242.669 25.8627 242.669 24.2058V18.4908C242.669 16.8339 244.012 15.4908 245.669 15.4908H259.107C260.764 15.4908 262.107 16.8339 262.107 18.4908V58.6464C262.107 60.3033 260.764 61.6464 259.107 61.6464H251.859ZM259.107 18.4908H245.669V24.2058H251.859V58.6464H259.107V18.4908ZM248.093 12.8058C248.071 12.7824 248.05 12.7587 248.028 12.7346C246.717 11.2545 246.142 9.43508 246.142 7.51187C246.142 5.58867 246.717 3.76921 248.028 2.28909C248.05 2.26503 248.071 2.24132 248.093 2.21796C249.652 0.568587 251.78 0 253.898 0C255.985 0 258.131 0.55462 259.658 2.25162C261.028 3.71922 261.654 5.55009 261.654 7.51187C261.654 9.4737 261.028 11.3046 259.658 12.7722C258.131 14.4691 255.985 15.0237 253.898 15.0237C251.78 15.0237 249.652 14.4552 248.093 12.8058ZM257.446 10.7454C258.251 9.89314 258.654 8.8153 258.654 7.51187C258.654 6.20844 258.251 5.1306 257.446 4.27836C256.691 3.42612 255.508 3 253.898 3C252.287 3 251.079 3.42612 250.274 4.27836C249.519 5.1306 249.142 6.20844 249.142 7.51187C249.142 8.8153 249.519 9.89314 250.274 10.7454C251.079 11.5976 252.287 12.0237 253.898 12.0237C255.508 12.0237 256.691 11.5976 257.446 10.7454ZM282.482 61.6464C281.199 61.6464 280.058 60.8311 279.643 59.6177L265.903 19.462C265.589 18.5456 265.738 17.5343 266.301 16.7463C266.864 15.9583 267.773 15.4908 268.741 15.4908H276.291C277.581 15.4908 278.727 16.3154 279.136 17.5387L288.482 45.4669L296.588 17.6514C296.961 16.3711 298.135 15.4908 299.468 15.4908H306.565C307.512 15.4908 308.403 15.9378 308.969 16.6967C309.535 17.4556 309.71 18.4373 309.44 19.345L297.512 59.5007C297.134 60.7736 295.964 61.6464 294.636 61.6464H282.482ZM268.741 18.4908H276.291L287.817 52.9314H289.432L299.468 18.4908H306.565L294.636 58.6464H282.482L268.741 18.4908ZM311.326 47.6997C311.32 47.682 311.315 47.6643 311.309 47.6465C310.467 44.906 310.044 42.1024 310.044 39.2454V37.8918C310.044 34.9906 310.465 32.1617 311.309 29.4155C311.315 29.3977 311.32 29.38 311.326 29.3623C312.243 26.5646 313.626 24.0323 315.473 21.7866C317.383 19.4124 319.788 17.5618 322.635 16.2291C325.628 14.801 329.026 14.1372 332.749 14.1372C337.543 14.1372 341.764 15.1792 345.198 17.4916C348.503 19.6342 350.999 22.4581 352.604 25.9429C354.204 29.3085 355 32.9022 355 36.6887V39.9222C355 41.579 353.657 42.9222 352 42.9222H323.443C323.62 43.7167 323.849 44.4682 324.126 45.179C324.863 46.8993 325.95 48.2314 327.408 49.2432C328.756 50.131 330.621 50.6834 333.202 50.6834C335.942 50.6834 337.842 50.0782 339.157 49.1376L339.186 49.117C340.766 48.0152 341.395 46.9717 341.594 46.0536C341.894 44.6741 343.114 43.69 344.526 43.69H351.321C352.22 43.69 353.071 44.0933 353.641 44.7889C354.211 45.4845 354.439 46.399 354.262 47.2806C353.619 50.4842 352.312 53.3298 350.309 55.7474C348.324 58.1443 345.833 59.9576 342.89 61.1884C339.953 62.4175 336.706 63 333.202 63C329.343 63 325.843 62.3413 322.793 60.9117C319.872 59.5422 317.411 57.703 315.485 55.3652L315.462 55.3364C313.624 53.0483 312.243 50.4973 311.326 47.6997ZM325.728 51.7282C323.765 50.3747 322.305 48.5699 321.349 46.314C320.928 45.2429 320.605 44.1123 320.38 42.9222C320.198 41.961 320.079 40.961 320.025 39.9222H352V36.6887C352 33.3298 351.295 30.1715 349.886 27.2137C348.527 24.2559 346.413 21.8496 343.545 19.9947C340.726 18.0897 337.127 17.1372 332.749 17.1372C329.377 17.1372 326.432 17.7388 323.916 18.942C321.449 20.095 319.411 21.6741 317.801 23.6794C316.19 25.6346 314.982 27.8404 314.177 30.2968C313.865 31.3118 313.617 32.3396 313.434 33.3802C313.368 33.7544 313.311 34.1304 313.262 34.5079C313.245 34.6346 313.23 34.7615 313.215 34.8886C313.101 35.8784 313.044 36.8794 313.044 37.8918V39.2454C313.044 41.8021 313.422 44.3087 314.177 46.7652C314.982 49.2216 316.19 51.4525 317.801 53.4578C319.411 55.4129 321.5 56.9921 324.067 58.1953C326.634 59.3984 329.678 60 333.202 60C336.372 60 339.216 59.4736 341.733 58.4208C344.249 57.3681 346.338 55.8391 347.999 53.8338C349.024 52.5958 349.838 51.2145 350.442 49.69C350.816 48.745 351.109 47.745 351.321 46.69H344.526C344.123 48.5449 342.915 50.1741 340.902 51.5778C338.939 52.9815 336.372 53.6834 333.202 53.6834C330.182 53.6834 327.69 53.0317 325.728 51.7282ZM321.065 31.5079C320.74 32.4506 320.488 33.4506 320.31 34.5079H344.878C344.828 34.1178 344.768 33.737 344.698 33.3654C344.575 32.7182 344.421 32.099 344.235 31.5079C344.077 31.009 343.898 30.5301 343.695 30.0712C342.79 27.9657 341.431 26.3364 339.619 25.1834C337.807 24.0303 335.517 23.4538 332.749 23.4538C329.88 23.4538 327.489 24.1055 325.577 25.409C323.714 26.7124 322.305 28.4921 321.349 30.748C321.249 30.997 321.154 31.2503 321.065 31.5079ZM324.294 31.5079H341.047C341.015 31.4314 340.983 31.3558 340.95 31.2812L340.94 31.2569C340.255 29.6654 339.277 28.5219 338.008 27.7144C336.799 26.9446 335.109 26.4538 332.749 26.4538C330.347 26.4538 328.587 26.9933 327.282 27.8775C326.031 28.7568 325.032 29.9408 324.294 31.5079Z" fill="#001A40"></path><path d="M8.23237 63L25.3844 24.073L24.6474 23.068H0.862366V14.09H37.9134V21.058L19.8904 63H8.23237ZM0.862366 30.974V14.09H9.77337V22.532V30.974H0.862366Z" fill="#0068FF"></path></svg>